<svg id="Layer_2" data-name="Layer 2" xmlns="http://www.w3.org/2000/svg" viewBox="0 0 381.69 172.07"><defs><style>.cls-1{fill:#007672;}.cls-2{fill:#fff;}</style></defs><title>logo</title><rect class="cls-1" x="-23" y="-20" width="479" height="260"/><path class="cls-2" d="M17.07,13.41A1.27,1.27,0,0,0,18,13a1.38,1.38,0,0,0,0-1.9,1.27,1.27,0,0,0-.95-.39,1.33,1.33,0,0,0-.95.39,1.33,1.33,0,0,0,0,1.9A1.31,1.31,0,0,0,17.07,13.41Z"/><path class="cls-2" d="M25.32,28.23H10.39q-1.75,0-3-.12a13.35,13.35,0,0,1-2.16-.35,4.55,4.55,0,0,1-1.45-.6,2.73,2.73,0,0,1-.85-.88,3.32,3.32,0,0,1-.41-1.17,9.33,9.33,0,0,1-.11-1.46c0-.37,0-.73.05-1.08s.08-.66.13-.93L.65,21.46c-.08.5-.14,1-.2,1.55s-.08,1-.08,1.36A8.8,8.8,0,0,0,.5,25.93,4.8,4.8,0,0,0,1,27.34a4.13,4.13,0,0,0,1,1.2,5.53,5.53,0,0,0,1.54.94,10.13,10.13,0,0,0,2.25.61,19.91,19.91,0,0,0,3.09.21H27.43V17.59H25.32V28.23Z"/><path class="cls-2" d="M12.81,13.41a1.34,1.34,0,0,0,.95-2.29,1.28,1.28,0,0,0-.95-.39,1.3,1.3,0,0,0-1,.39,1.33,1.33,0,0,0,0,1.9A1.31,1.31,0,0,0,12.81,13.41Z"/><path class="cls-2" d="M104.74,21.22a8.17,8.17,0,0,0-.88-1.47,6,6,0,0,0-1.24-1.23,6.3,6.3,0,0,0-1.6-.86,5.8,5.8,0,0,0-2-.32,5.86,5.86,0,0,0-1.12.12,4.93,4.93,0,0,0-1.27.44,6.86,6.86,0,0,0-1.36.91A8.37,8.37,0,0,0,94,20.34a13.88,13.88,0,0,0-1.27,2.3,21.73,21.73,0,0,0-1.12,3.22A3.2,3.2,0,0,1,91,27a2.83,2.83,0,0,1-.79.72,3.28,3.28,0,0,1-.95.39,4.44,4.44,0,0,1-1,.12h-50a4.84,4.84,0,0,1-1.38-.16,1.75,1.75,0,0,1-.86-.53,2.27,2.27,0,0,1-.45-1A7.54,7.54,0,0,1,35.47,25V6.7H33.36v19a7.19,7.19,0,0,0,.22,1.84A3.89,3.89,0,0,0,34.3,29a3.43,3.43,0,0,0,1.31,1,4.82,4.82,0,0,0,2,.35h51l.12,0a6.32,6.32,0,0,0,1-.07,3.9,3.9,0,0,0,1.05-.32,3.19,3.19,0,0,0,.89-.64,4.57,4.57,0,0,0,.75-1,8.43,8.43,0,0,0,1.32.89,11.73,11.73,0,0,0,1.6.72,13.81,13.81,0,0,0,1.82.49,10.59,10.59,0,0,0,2,.18A7.15,7.15,0,0,0,102,30a5.54,5.54,0,0,0,2-1.4,5.46,5.46,0,0,0,1.14-2,7.09,7.09,0,0,0,.37-2.29,6.8,6.8,0,0,0-.18-1.5,7.68,7.68,0,0,0-.54-1.57Zm-1.41,5.14a3.05,3.05,0,0,1-1,1.15,4.85,4.85,0,0,1-1.6.67,9.6,9.6,0,0,1-2.09.21,8.34,8.34,0,0,1-1.6-.16,10.88,10.88,0,0,1-1.59-.43,7.89,7.89,0,0,1-1.33-.6,2.67,2.67,0,0,1-.82-.67,17.93,17.93,0,0,1,.89-2.74,10.39,10.39,0,0,1,1.27-2.26A6.36,6.36,0,0,1,97.05,20,3.49,3.49,0,0,1,99,19.4a3.84,3.84,0,0,1,2,.54,5.17,5.17,0,0,1,1.48,1.35,6.48,6.48,0,0,1,.9,1.73,5.41,5.41,0,0,1,.3,1.66,3.74,3.74,0,0,1-.35,1.67Z"/><path class="cls-2" d="M163.1,13.41a1.34,1.34,0,0,0,1-2.29,1.28,1.28,0,0,0-1-.39,1.3,1.3,0,0,0-.95.39,1.33,1.33,0,0,0,0,1.9A1.31,1.31,0,0,0,163.1,13.41Z"/><path class="cls-2" d="M170.83,27.41a4.91,4.91,0,0,1-.72-1.41,12.61,12.61,0,0,1-.46-1.9q-.18-1.05-.33-2.19a8.16,8.16,0,0,0-.6-2.2A5.37,5.37,0,0,0,167.58,18,4.86,4.86,0,0,0,165.9,17a6.08,6.08,0,0,0-2.2-.37,10.75,10.75,0,0,0-2.11.19c-.65.13-1.28.28-1.91.47v1.79c.24-.08.5-.14.78-.21s.56-.12.83-.16l.8-.12a6,6,0,0,1,.7,0,4.94,4.94,0,0,1,2.51.56,4.34,4.34,0,0,1,1.5,1.45,6.42,6.42,0,0,1,.81,2c.18.75.32,1.49.44,2.22,0,.31.13.62.21.95a7.72,7.72,0,0,0,.32,1,5.14,5.14,0,0,0,.46.87,2.86,2.86,0,0,0,.62.67H125A11.37,11.37,0,0,1,122.6,28a7.44,7.44,0,0,1-1.88-.66,6.22,6.22,0,0,0,.38-2.19,6.59,6.59,0,0,0-.49-2.44,12.32,12.32,0,0,0-1.31-2.44,19.88,19.88,0,0,0-1.85-2.33,28.34,28.34,0,0,0-2.14-2.11l-1.56,1.56c.7.59,1.39,1.22,2.06,1.88a19.15,19.15,0,0,1,1.78,2,10.73,10.73,0,0,1,1.24,2.06,5,5,0,0,1,.47,2,3.21,3.21,0,0,1-.21,1.2,2,2,0,0,1-.74.9,4,4,0,0,1-1.46.56,11.79,11.79,0,0,1-2.37.19H109v2.09h6a9.11,9.11,0,0,0,2.86-.39,5.07,5.07,0,0,0,1.91-1.09,9.67,9.67,0,0,0,1,.62,6.5,6.5,0,0,0,1.13.46,8.42,8.42,0,0,0,1.37.3c.18,0,.39,0,.59.06a1.45,1.45,0,0,0,.4.05h47.71V28.15a1.92,1.92,0,0,1-1.09-.73Z"/><path class="cls-2" d="M23.12,55.39A8.31,8.31,0,0,0,19.5,58a6.61,6.61,0,0,0-1.38,4.25,5.72,5.72,0,0,0,1,3.15,11.77,11.77,0,0,0,2.53,2.79l.52.41a21.37,21.37,0,0,1,2.51,2.21,3,3,0,0,1,.94,2.08,3.52,3.52,0,0,1-1.15,2.46,8.3,8.3,0,0,1-3.21,1.94,13.71,13.71,0,0,1-4.7.75,14.78,14.78,0,0,1-5.57-1,7.79,7.79,0,0,1-3.55-2.72,7.17,7.17,0,0,1-1.23-4.2,11.1,11.1,0,0,1,.54-3.41,9.38,9.38,0,0,1,1.61-3L3.63,61.11a16.75,16.75,0,0,0-2.39,4.48A14.66,14.66,0,0,0,.37,70.5,10.82,10.82,0,0,0,2.5,77.19,13.64,13.64,0,0,0,8,81.52a21.5,21.5,0,0,0,8.62,1.59,19.59,19.59,0,0,0,6.91-1.3A14.49,14.49,0,0,0,29.31,78a8.57,8.57,0,0,0,2.29-6,4.84,4.84,0,0,0-1.15-2.85,21.07,21.07,0,0,0-3.8-3.62Q24,63.39,24,62a2.16,2.16,0,0,1,1.17-2,5.42,5.42,0,0,1,2.62-.62,8,8,0,0,1,2.18.39,21.85,21.85,0,0,1,2.72,1L34,55.69a19.31,19.31,0,0,0-6.13-1.16,13.17,13.17,0,0,0-4.75.86Z"/><path class="cls-2" d="M21.29,86a2.84,2.84,0,0,0-1.47-.4,2.75,2.75,0,0,0-2.06.85,2.82,2.82,0,0,0-.84,2A2.86,2.86,0,0,0,18.39,91a2.91,2.91,0,0,0,2.93,0,2.74,2.74,0,0,0,1-1.07,2.91,2.91,0,0,0,.37-1.44,2.83,2.83,0,0,0-.39-1.44,3,3,0,0,0-1-1.07Z"/><path class="cls-2" d="M14.49,86a2.85,2.85,0,0,0-1.48-.4,2.75,2.75,0,0,0-2.06.85,2.82,2.82,0,0,0-.84,2A2.86,2.86,0,0,0,11.58,91a2.91,2.91,0,0,0,2.93,0,2.74,2.74,0,0,0,1-1.07,2.91,2.91,0,0,0,.37-1.44,2.83,2.83,0,0,0-.39-1.44,3,3,0,0,0-1-1.07Z"/><path class="cls-2" d="M170.18,77.11a2.84,2.84,0,0,0-1.47-.4,2.75,2.75,0,0,0-2.06.85,2.82,2.82,0,0,0-.84,2,2.73,2.73,0,0,0,.4,1.47,3,3,0,0,0,2.51,1.43,2.85,2.85,0,0,0,1.49-.4,2.81,2.81,0,0,0,1-1.07,2.91,2.91,0,0,0,.37-1.44,2.83,2.83,0,0,0-.39-1.44,3,3,0,0,0-1-1.07Z"/><path class="cls-2" d="M166,54.5V68.14H114.63a13.1,13.1,0,0,1-4.83-.91,12.81,12.81,0,0,0,.11-1.57V40.43H104V65.16c0,2-.85,3-2.54,3h-41a12.53,12.53,0,0,1-5.26-1,9,9,0,0,0,.25-2.18,12,12,0,0,0-2.31-6.57,33.49,33.49,0,0,0-6.74-7.11L42.15,55.4a35.12,35.12,0,0,1,5.58,5.52,7.8,7.8,0,0,1,2,4.39,2.55,2.55,0,0,1-.87,2.12,5.61,5.61,0,0,1-3.3.69H36.7v5h8.83a14.87,14.87,0,0,0,4.33-.59,8.57,8.57,0,0,0,3.27-1.79A10.68,10.68,0,0,0,60,73.08l.39,0h42.94a6.21,6.21,0,0,0,4.72-1.86A10,10,0,0,0,111,72.61a13.31,13.31,0,0,0,3.52.48h57.43V54.5Z"/><path class="cls-2" d="M295.91,0V19.39c-1,.9-3.13,3.83-5.91,13.12a.34.34,0,0,1-.53.19c-1.7-1.29-9.18-6.13-21.67-1.74a.34.34,0,0,0,0,.63c1.72.71,5.77,2.62,8.05,5.21a.33.33,0,0,1-.27.54c-4.77-.15-31.61.53-52.28,33.06a.34.34,0,0,0,.48.46c5.12-3.59,23.51-15.58,39.62-14.27a.33.33,0,0,1,.12.63c-5.79,2.69-31.39,16.77-37.27,56.93a.34.34,0,0,0,.63.22C230.47,108,245,84.15,265.2,75.69a.34.34,0,0,1,.39.53c-3.92,4.8-19.36,26.18-16,61.56a.33.33,0,0,0,.65.07c2.11-6.81,11-33.61,25.83-49.85a.33.33,0,0,1,.58.27c-1,6.13-5.4,36.23-.15,59.86a.34.34,0,0,0,.66,0c.85-8.87,4.68-44.09,12.55-54.87a.35.35,0,0,1,.27-.14l.29,0L292,114.62h-3l2.31,28.89h-2.81L290,172a86.14,86.14,0,0,1-79.83-85.91C210.15,40.69,248.49.2,295.91,0"/><path class="cls-2" d="M295.92,0V19.39c1,.9,3.13,3.83,5.91,13.12a.34.34,0,0,0,.53.19c1.7-1.29,9.18-6.13,21.67-1.74a.34.34,0,0,1,0,.63c-1.72.71-5.77,2.62-8.05,5.21a.33.33,0,0,0,.27.54c4.77-.15,31.61.53,52.28,33.06a.34.34,0,0,1-.48.46c-5.12-3.59-23.51-15.58-39.62-14.27a.33.33,0,0,0-.12.63c5.79,2.69,31.39,16.77,37.27,56.93a.34.34,0,0,1-.63.22c-3.61-6.37-18.18-30.22-38.34-38.68a.34.34,0,0,0-.39.53c3.92,4.8,19.36,26.18,16,61.56a.33.33,0,0,1-.65.07c-2.11-6.81-11-33.61-25.83-49.85a.33.33,0,0,0-.58.27c1,6.13,5.4,36.23.15,59.86a.34.34,0,0,1-.66,0c-.85-8.87-4.68-44.09-12.55-54.87a.35.35,0,0,0-.27-.14l-.29,0-1.72,21.57h3l-2.31,28.89h2.81L301.85,172a86.14,86.14,0,0,0,79.83-85.91C381.68,40.69,343.34.2,295.92,0"/><path class="cls-2" d="M3.07,164.3a5.19,5.19,0,0,1-2.18-1.66A4.39,4.39,0,0,1,0,160.2h2.6a2.54,2.54,0,0,0,1.06,1.85,4,4,0,0,0,2.5.72,3.57,3.57,0,0,0,2.26-.64,2,2,0,0,0,.83-1.6,1.6,1.6,0,0,0-.88-1.48,12.41,12.41,0,0,0-2.73-1,18.89,18.89,0,0,1-2.75-.9,4.85,4.85,0,0,1-1.82-1.35,3.52,3.52,0,0,1-.76-2.36A3.61,3.61,0,0,1,1,151.36a4.63,4.63,0,0,1,2-1.53,7,7,0,0,1,2.9-.57,6.17,6.17,0,0,1,4.06,1.27A4.61,4.61,0,0,1,11.59,154H9.08a2.59,2.59,0,0,0-.95-1.91,3.55,3.55,0,0,0-2.33-.72,3.56,3.56,0,0,0-2.15.58,1.8,1.8,0,0,0-.8,1.52,1.67,1.67,0,0,0,.48,1.23,3.49,3.49,0,0,0,1.22.77c.49.19,1.16.41,2,.65a20.08,20.08,0,0,1,2.65.87A4.62,4.62,0,0,1,11,158.28a3.44,3.44,0,0,1,.76,2.24,3.85,3.85,0,0,1-.69,2.24,4.64,4.64,0,0,1-2,1.56,6.93,6.93,0,0,1-2.89.57,7.92,7.92,0,0,1-3.12-.59Z"/><path class="cls-2" d="M37.81,158H25.71a4.76,4.76,0,0,0,4.91,4.75,4.62,4.62,0,0,0,2.72-.76,4,4,0,0,0,1.53-2h2.71a6.54,6.54,0,0,1-2.43,3.55,7.37,7.37,0,0,1-4.53,1.37,7.57,7.57,0,0,1-3.85-1,6.78,6.78,0,0,1-2.66-2.75,9.39,9.39,0,0,1,0-8.25,6.59,6.59,0,0,1,2.64-2.72,7.89,7.89,0,0,1,3.91-.95,7.42,7.42,0,0,1,3.81.94A6.61,6.61,0,0,1,37,152.77a7.6,7.6,0,0,1,.9,3.71c0,.48,0,1-.08,1.52Zm-3.15-4.52a4.13,4.13,0,0,0-1.73-1.58,5.38,5.38,0,0,0-2.42-.54,4.69,4.69,0,0,0-3.25,1.22A5,5,0,0,0,25.73,156h9.56A4.65,4.65,0,0,0,34.66,153.49Z"/><path class="cls-2" d="M54.46,150a5.85,5.85,0,0,1,3-.72v2.6H56.8q-4.23,0-4.23,4.59v8.23H50.06V149.51h2.51V152A4.79,4.79,0,0,1,54.46,150Z"/><path class="cls-2" d="M74.83,162.32l4.7-12.82h2.68l-5.94,15.14H73.34L67.4,149.5h2.71Z"/><path class="cls-2" d="M93.61,146.55a1.74,1.74,0,0,1,0-2.44,1.63,1.63,0,0,1,1.22-.5,1.54,1.54,0,0,1,1.17.5,1.79,1.79,0,0,1,0,2.44,1.57,1.57,0,0,1-1.17.5A1.72,1.72,0,0,1,93.61,146.55ZM96,149.5v15.14H93.53V149.5Z"/><path class="cls-2" d="M109.16,153a6.77,6.77,0,0,1,2.61-2.72,8.3,8.3,0,0,1,8.43.38,6.36,6.36,0,0,1,2.39,3.76h-2.71a3.87,3.87,0,0,0-1.51-2.18,4.68,4.68,0,0,0-2.78-.8,4.43,4.43,0,0,0-3.48,1.48,6.06,6.06,0,0,0-1.33,4.18,6.18,6.18,0,0,0,1.33,4.23,4.4,4.4,0,0,0,3.48,1.49,4.73,4.73,0,0,0,2.76-.77,3.9,3.9,0,0,0,1.52-2.21h2.71a6.6,6.6,0,0,1-2.43,3.71,7.29,7.29,0,0,1-4.56,1.4,7.47,7.47,0,0,1-3.83-1,6.8,6.8,0,0,1-2.61-2.73,8.66,8.66,0,0,1-.94-4.14,8.47,8.47,0,0,1,.94-4.1Z"/><path class="cls-2" d="M148.49,158h-12.1a4.76,4.76,0,0,0,4.91,4.75A4.62,4.62,0,0,0,144,162a4,4,0,0,0,1.53-2h2.71a6.54,6.54,0,0,1-2.43,3.55,7.35,7.35,0,0,1-4.53,1.37,7.57,7.57,0,0,1-3.85-1,6.78,6.78,0,0,1-2.66-2.75,9.39,9.39,0,0,1,0-8.25,6.59,6.59,0,0,1,2.64-2.72,7.89,7.89,0,0,1,3.91-.95,7.42,7.42,0,0,1,3.81.94,6.61,6.61,0,0,1,2.56,2.58,7.6,7.6,0,0,1,.9,3.71c0,.48,0,1-.08,1.52Zm-3.15-4.52a4.13,4.13,0,0,0-1.73-1.58,5.38,5.38,0,0,0-2.42-.54,4.69,4.69,0,0,0-3.25,1.22,5,5,0,0,0-1.53,3.37H146A4.65,4.65,0,0,0,145.34,153.49Z"/><path class="cls-2" d="M163,164.3a5.19,5.19,0,0,1-2.18-1.66,4.39,4.39,0,0,1-.88-2.44h2.6a2.54,2.54,0,0,0,1.06,1.85,4,4,0,0,0,2.5.72,3.57,3.57,0,0,0,2.26-.64,2,2,0,0,0,.83-1.6,1.6,1.6,0,0,0-.88-1.48,12.41,12.41,0,0,0-2.73-1,18.89,18.89,0,0,1-2.75-.9,4.85,4.85,0,0,1-1.82-1.35,3.52,3.52,0,0,1-.76-2.36,3.61,3.61,0,0,1,.69-2.13,4.63,4.63,0,0,1,2-1.53,7,7,0,0,1,2.9-.57,6.17,6.17,0,0,1,4.06,1.27,4.61,4.61,0,0,1,1.66,3.48H169a2.59,2.59,0,0,0-.95-1.91,4.2,4.2,0,0,0-4.48-.14,1.8,1.8,0,0,0-.8,1.52,1.67,1.67,0,0,0,.48,1.23,3.49,3.49,0,0,0,1.22.77c.49.19,1.16.41,2,.65a20.08,20.08,0,0,1,2.65.87,4.62,4.62,0,0,1,1.75,1.28,3.44,3.44,0,0,1,.76,2.24,3.85,3.85,0,0,1-.69,2.24,4.64,4.64,0,0,1-1.95,1.56,6.93,6.93,0,0,1-2.89.57,7.92,7.92,0,0,1-3.12-.59Z"/><path class="cls-2" d="M4,108.34c1.72-3.29,5.65-4.86,9.09-4.86,6.93,0,12.28,4.42,12.28,12.58S20,128.64,13.07,128.64a10.2,10.2,0,0,1-9-4.86l-.2,4.42H0V95.82H4v12.53Zm.2,7.67a8.43,8.43,0,0,0,8.6,8.85c4.82,0,8.55-3.2,8.55-8.8s-3.83-8.8-8.55-8.8A8.46,8.46,0,0,0,4.23,116"/><path class="cls-2" d="M53.71,128.29l-.1-4.42a10.27,10.27,0,0,1-8.94,4.91c-7,0-12.43-4.82-12.43-12.73s5.55-12.58,12.48-12.53a10.16,10.16,0,0,1,9,4.82l0-4.42h3.93v24.27H53.81l-.1.1Zm-8.84-20.93a8.87,8.87,0,0,0,0,17.73c11.69,0,11.69-17.79.05-17.79l-.05,0Z"/><rect class="cls-2" x="67.82" y="95.81" width="4.03" height="32.38"/><path class="cls-2" d="M101.92,128.29l-.1-4.42a10.27,10.27,0,0,1-8.94,4.91c-7,0-12.43-4.82-12.43-12.73S86,103.47,92.93,103.52a10.16,10.16,0,0,1,9,4.82l0-4.42h3.93v24.27H102l-.1.1Zm-8.84-20.93a8.87,8.87,0,0,0,0,17.73c11.69,0,11.69-17.79,0-17.79l0,0Z"/><path class="cls-2" d="M139.62,95.77v32.38h-3.78l-.2-4.42a10.29,10.29,0,0,1-9.09,4.91c-6.93,0-12.28-4.57-12.28-12.58s5.36-12.58,12.24-12.58c3.44,0,7.37,1.57,9.09,4.86V95.81h4l0,0Zm-12.77,11.45c-4.72,0-8.55,3.1-8.55,8.8s3.83,8.8,8.55,8.8a8.49,8.49,0,0,0,8.6-8.84,8.39,8.39,0,0,0-8.65-8.75h0Z"/><polygon class="cls-2" points="167.19 103.92 161.83 116.6 159.23 123.48 156.58 116.55 151.8 103.92 147.23 103.92 157.02 127.85 152.85 137.54 157.17 137.54 171.61 103.92 167.19 103.92"/></svg>