<?xml version="1.0" encoding="UTF-8"?><svg id="Layer_2" xmlns="http://www.w3.org/2000/svg" viewBox="0 0 381.69 172.07"><g id="Layer_1-2"><path d="m17.07,13.41c.38,0,.7-.13.95-.39.25-.26.38-.58.38-.96,0-.36-.13-.67-.38-.94-.25-.26-.57-.39-.95-.39-.36,0-.68.13-.95.39-.27.26-.4.58-.4.94,0,.38.13.7.4.96.27.26.58.39.95.39Z" fill="#3f3f3d" stroke-width="0"/><path d="m25.32,28.23h-14.93c-1.17,0-2.18-.04-3.03-.12-.84-.08-1.57-.19-2.16-.35-.6-.15-1.08-.35-1.45-.6-.37-.25-.65-.54-.85-.88-.2-.34-.34-.73-.41-1.17-.07-.44-.11-.93-.11-1.46,0-.37.02-.73.05-1.08.03-.35.08-.66.13-.93l-1.91-.18c-.08.5-.14,1.02-.2,1.55-.05.53-.08.98-.08,1.36,0,.54.04,1.06.13,1.56.09.5.25.98.48,1.41.23.44.54.84.95,1.2.4.36.91.67,1.54.94.63.26,1.38.47,2.25.61.88.14,1.91.21,3.09.21h18.62v-12.71h-2.11v10.62Z" fill="#3f3f3d" stroke-width="0"/><path d="m12.81,13.41c.37,0,.69-.13.95-.39.26-.26.39-.58.39-.96,0-.36-.13-.67-.39-.94-.26-.26-.57-.39-.95-.39s-.68.13-.95.39c-.27.26-.4.58-.4.94,0,.38.13.7.4.96.27.26.58.39.95.39Z" fill="#3f3f3d" stroke-width="0"/><path d="m104.74,21.22c-.24-.51-.53-1.01-.88-1.47-.35-.47-.77-.88-1.24-1.23-.48-.36-1.01-.64-1.6-.86-.59-.21-1.24-.32-1.96-.32-.34,0-.71.04-1.12.12-.41.08-.83.22-1.27.44-.44.22-.9.52-1.36.91-.46.39-.91.9-1.36,1.53-.44.63-.87,1.4-1.27,2.3-.41.9-.78,1.98-1.12,3.22-.12.45-.3.83-.53,1.13-.23.3-.49.54-.79.72-.3.18-.61.31-.95.39-.34.08-.68.12-1.02.12h-49.98c-.56,0-1.02-.05-1.38-.16s-.65-.28-.86-.53c-.21-.25-.36-.58-.45-.99-.09-.42-.13-.93-.13-1.55V6.7h-2.11v18.98c0,.66.07,1.27.22,1.84.15.57.39,1.06.72,1.47.33.41.77.73,1.31.97.54.24,1.19.35,1.97.35h51.02s.08-.01.12-.02c.34,0,.68-.02.99-.07.38-.06.73-.17,1.05-.32.32-.15.62-.37.89-.64.27-.27.52-.62.75-1.04.38.32.82.61,1.32.89.49.27,1.03.51,1.6.72.57.2,1.18.36,1.82.49.64.12,1.29.18,1.96.18,1.12,0,2.08-.18,2.88-.53.8-.35,1.46-.82,1.97-1.4.52-.58.9-1.24,1.14-1.98.25-.74.37-1.5.37-2.29,0-.47-.06-.97-.18-1.5-.12-.53-.3-1.06-.54-1.57Zm-1.41,5.14c-.24.47-.58.85-1.02,1.15-.44.3-.98.52-1.6.67-.63.14-1.32.21-2.09.21-.5,0-1.04-.05-1.6-.16s-1.09-.25-1.59-.43c-.51-.18-.95-.38-1.33-.6-.38-.22-.66-.45-.82-.67.23-.96.53-1.88.89-2.74.36-.86.78-1.61,1.27-2.26.48-.65,1.02-1.16,1.61-1.55.59-.38,1.23-.58,1.92-.58.77,0,1.45.18,2.04.54.59.36,1.08.81,1.48,1.35.39.54.69,1.11.9,1.73.2.61.3,1.17.3,1.66,0,.65-.12,1.2-.35,1.67Z" fill="#3f3f3d" stroke-width="0"/><path d="m163.1,13.41c.37,0,.69-.13.95-.39.26-.26.39-.58.39-.96,0-.36-.13-.67-.39-.94-.26-.26-.57-.39-.95-.39s-.68.13-.95.39c-.27.26-.4.58-.4.94,0,.38.13.7.4.96.27.26.58.39.95.39Z" fill="#3f3f3d" stroke-width="0"/><path d="m170.83,27.41c-.29-.38-.53-.85-.72-1.41-.19-.56-.34-1.2-.46-1.9-.12-.7-.23-1.43-.33-2.19-.11-.81-.31-1.54-.6-2.2-.29-.65-.67-1.21-1.14-1.67s-1.03-.81-1.68-1.06c-.65-.25-1.38-.37-2.2-.37-.76,0-1.46.06-2.11.19-.65.13-1.28.28-1.91.47v1.79c.24-.08.5-.14.78-.21.28-.06.56-.12.83-.16.27-.05.54-.09.8-.12.26-.03.49-.04.7-.04,1.04,0,1.88.19,2.51.56.63.37,1.13.86,1.5,1.45.37.59.64,1.26.81,2.01.18.75.32,1.49.44,2.22.05.31.13.62.21.95.09.33.19.65.32.96.13.31.28.6.46.87.18.27.39.49.62.67h-44.68c-.89,0-1.68-.08-2.38-.23-.7-.15-1.32-.37-1.88-.66.25-.67.38-1.4.38-2.19s-.16-1.61-.49-2.44c-.33-.83-.76-1.64-1.31-2.44-.54-.8-1.16-1.58-1.85-2.33-.69-.75-1.4-1.46-2.14-2.11l-1.56,1.56c.7.59,1.39,1.22,2.06,1.88.67.66,1.26,1.33,1.78,2.01.52.69.93,1.37,1.24,2.06.31.69.47,1.37.47,2.04,0,.45-.07.85-.21,1.2-.14.35-.38.65-.74.9-.36.25-.84.43-1.46.56-.61.13-1.4.19-2.37.19h-5.54v2.09h5.97c1.13,0,2.08-.13,2.86-.39.78-.26,1.41-.62,1.91-1.09.33.23.66.44,1,.62.34.18.71.33,1.13.46.41.13.87.23,1.37.3.18.03.39.04.59.06.11.03.23.05.4.05h47.71v-2.17c-.44-.11-.8-.35-1.09-.73Z" fill="#3f3f3d" stroke-width="0"/><path d="m23.12,55.39c-1.49.57-2.7,1.44-3.62,2.6-.92,1.16-1.38,2.57-1.38,4.25,0,1.04.34,2.1,1.03,3.15.69,1.06,1.53,1.99,2.53,2.79l.52.41c1.04.8,1.88,1.54,2.51,2.21.63.67.94,1.37.94,2.08,0,.85-.38,1.67-1.15,2.46-.76.79-1.83,1.44-3.21,1.94-1.38.5-2.94.75-4.7.75-2.16,0-4.02-.32-5.57-.95-1.55-.64-2.73-1.54-3.55-2.72-.82-1.18-1.23-2.58-1.23-4.2,0-1.15.18-2.29.54-3.41.36-1.13.9-2.14,1.61-3.03l-4.76-2.61c-1.01,1.35-1.81,2.84-2.39,4.48-.58,1.64-.87,3.28-.87,4.91,0,2.57.71,4.8,2.13,6.69,1.42,1.89,3.26,3.34,5.51,4.33,2.44,1.06,5.31,1.59,8.62,1.59,2.28,0,4.59-.43,6.91-1.3,2.32-.87,4.25-2.14,5.77-3.82,1.53-1.68,2.29-3.67,2.29-5.97,0-.88-.38-1.83-1.15-2.85-.76-1.02-2.03-2.23-3.8-3.62-1.8-1.44-2.7-2.61-2.7-3.52s.39-1.61,1.17-2.03c.78-.42,1.65-.62,2.62-.62.57,0,1.3.13,2.18.39.88.26,1.78.6,2.72,1.02l1.34-5.1c-2.27-.77-4.31-1.16-6.13-1.16-1.68,0-3.26.29-4.75.86Z" fill="#3f3f3d" stroke-width="0"/><path d="m21.29,86.02c-.44-.26-.93-.4-1.47-.4-.82,0-1.51.28-2.06.85-.56.57-.84,1.25-.84,2.05,0,.54.13,1.04.4,1.48.26.44.62.79,1.07,1.04.45.26.93.39,1.44.39.54,0,1.04-.13,1.49-.4.45-.26.79-.62,1.04-1.07.25-.45.37-.93.37-1.44s-.13-.99-.39-1.44c-.26-.45-.61-.8-1.04-1.07Z" fill="#3f3f3d" stroke-width="0"/><path d="m14.49,86.02c-.44-.26-.93-.4-1.48-.4-.82,0-1.51.28-2.06.85-.56.57-.84,1.25-.84,2.05,0,.54.13,1.04.4,1.48.26.44.62.79,1.07,1.04.45.26.93.39,1.44.39.55,0,1.04-.13,1.49-.4.45-.26.79-.62,1.04-1.07s.37-.93.37-1.44-.13-.99-.39-1.44c-.26-.45-.6-.8-1.04-1.07Z" fill="#3f3f3d" stroke-width="0"/><path d="m170.18,77.11c-.44-.26-.93-.4-1.47-.4-.82,0-1.51.28-2.06.85-.56.57-.84,1.25-.84,2.05,0,.54.13,1.04.4,1.47.26.44.62.79,1.07,1.04.45.26.93.39,1.44.39.54,0,1.04-.13,1.49-.4s.79-.62,1.04-1.07c.25-.45.37-.93.37-1.44s-.13-.99-.39-1.44c-.26-.45-.61-.8-1.04-1.07Z" fill="#3f3f3d" stroke-width="0"/><path d="m166.01,54.5v13.64h-51.38c-1.77-.02-3.38-.32-4.83-.91.08-.64.11-1.16.11-1.57v-25.23h-5.92v24.73c0,1.98-.85,2.97-2.54,2.97h-40.97c-2,0-3.75-.35-5.26-1.04.17-.68.25-1.41.25-2.18,0-2.06-.77-4.25-2.31-6.57-1.54-2.32-3.79-4.69-6.74-7.11l-4.27,4.17c2.4,1.97,4.27,3.81,5.58,5.52s1.97,3.18,1.97,4.39c0,.95-.29,1.66-.87,2.12-.58.46-1.68.69-3.3.69h-8.83v4.97h8.83c1.6,0,3.05-.2,4.33-.59,1.29-.39,2.37-.99,3.27-1.79,1.72,1.5,4.03,2.28,6.91,2.37.12.01.25.02.39.02h42.94c1.97,0,3.54-.62,4.72-1.86.85.59,1.81,1.05,2.89,1.37.99.3,2.17.45,3.52.48.08,0,.15.01.24.01h57.19v-18.6h-5.92Z" fill="#3f3f3d" stroke-width="0"/><path d="m295.91,0v19.39c-.97.9-3.13,3.83-5.91,13.12-.07.22-.34.34-.53.19-1.7-1.29-9.18-6.13-21.67-1.74-.29.1-.31.51-.02.63,1.72.71,5.77,2.62,8.05,5.21.19.2.02.56-.27.54-4.77-.15-31.61.53-52.28,33.06-.19.32.19.66.48.46,5.12-3.59,23.51-15.58,39.62-14.27.34.02.42.49.12.63-5.79,2.69-31.39,16.77-37.27,56.93-.05.37.44.54.63.22,3.61-6.37,18.18-30.22,38.34-38.68.32-.14.61.25.39.53-3.92,4.8-19.36,26.18-16,61.56.03.36.53.42.65.07,2.11-6.81,11.01-33.61,25.83-49.85.24-.25.65-.05.58.27-.99,6.13-5.4,36.23-.15,59.86.09.36.63.32.66-.05.85-8.87,4.68-44.09,12.55-54.87.07-.09.17-.14.27-.14,0,0,.1,0,.29-.02l1.72,21.57h-2.96l2.31,28.89h-2.81l1.45,28.53c-44.64-3.23-79.83-40.47-79.83-85.91S248.49.2,295.91,0" fill="#007672" stroke-width="0"/><path d="m295.92,0v19.39c.97.9,3.13,3.83,5.91,13.12.07.22.34.34.53.19,1.7-1.29,9.18-6.13,21.67-1.74.29.1.31.51.02.63-1.72.71-5.77,2.62-8.05,5.21-.19.2-.02.56.27.54,4.77-.15,31.61.53,52.28,33.06.19.32-.19.66-.48.46-5.12-3.59-23.51-15.58-39.62-14.27-.34.02-.42.49-.12.63,5.79,2.69,31.39,16.77,37.27,56.93.05.37-.44.54-.63.22-3.61-6.37-18.18-30.22-38.34-38.68-.32-.14-.61.25-.39.53,3.92,4.8,19.36,26.18,16,61.56-.03.36-.53.42-.65.07-2.11-6.81-11.01-33.61-25.83-49.85-.24-.25-.65-.05-.58.27.99,6.13,5.4,36.23.15,59.86-.09.36-.63.32-.66-.05-.85-8.87-4.68-44.09-12.55-54.87-.07-.09-.17-.14-.27-.14,0,0-.1,0-.29-.02l-1.72,21.57h2.96l-2.31,28.89h2.81l-1.45,28.53c44.64-3.23,79.83-40.47,79.83-85.91S343.34.2,295.92,0" fill="#80bc00" stroke-width="0"/><path d="m3.07,164.3c-.92-.39-1.65-.95-2.18-1.66-.53-.71-.83-1.52-.88-2.44h2.6c.07.76.43,1.37,1.06,1.85.63.48,1.47.72,2.5.72.96,0,1.71-.21,2.26-.64.55-.42.83-.96.83-1.6s-.29-1.16-.88-1.48c-.59-.32-1.5-.64-2.73-.95-1.12-.29-2.04-.59-2.75-.9s-1.32-.75-1.82-1.35c-.51-.6-.76-1.39-.76-2.36,0-.77.23-1.48.69-2.13.46-.64,1.11-1.16,1.96-1.53.85-.38,1.81-.57,2.9-.57,1.68,0,3.03.42,4.06,1.27,1.03.85,1.58,2.01,1.66,3.48h-2.51c-.05-.79-.37-1.43-.95-1.91-.58-.48-1.36-.72-2.33-.72-.9,0-1.62.19-2.15.58s-.8.89-.8,1.52c0,.5.16.91.48,1.23s.73.58,1.22.77,1.16.41,2.03.65c1.09.29,1.97.58,2.65.87.68.29,1.27.71,1.75,1.28.49.57.74,1.32.76,2.24,0,.83-.23,1.57-.69,2.24-.46.66-1.11,1.18-1.95,1.56-.84.38-1.8.57-2.89.57-1.16,0-2.2-.2-3.12-.59Z" fill="#3f3f3d" stroke-width="0"/><path d="m37.81,158.01h-12.1c.09,1.49.6,2.66,1.53,3.49.93.84,2.06,1.26,3.38,1.26,1.09,0,1.99-.25,2.72-.76.73-.51,1.24-1.18,1.53-2.03h2.71c-.41,1.46-1.22,2.64-2.43,3.55-1.22.91-2.73,1.37-4.53,1.37-1.44,0-2.72-.32-3.85-.97-1.13-.64-2.02-1.56-2.66-2.75-.64-1.19-.97-2.56-.97-4.13s.31-2.94.94-4.12c.63-1.18,1.51-2.09,2.64-2.72,1.13-.63,2.43-.95,3.91-.95s2.71.31,3.81.94c1.1.63,1.96,1.49,2.56,2.58.6,1.1.9,2.33.9,3.71,0,.48-.03.98-.08,1.52Zm-3.15-4.52c-.42-.69-1-1.22-1.73-1.58-.73-.36-1.53-.54-2.42-.54-1.27,0-2.35.41-3.25,1.22-.89.81-1.4,1.93-1.53,3.37h9.56c0-.96-.21-1.78-.63-2.47Z" fill="#3f3f3d" stroke-width="0"/><path d="m54.46,149.95c.82-.48,1.82-.72,3-.72v2.6h-.66c-2.82,0-4.23,1.53-4.23,4.59v8.23h-2.51v-15.14h2.51v2.46c.44-.87,1.07-1.54,1.89-2.02Z" fill="#3f3f3d" stroke-width="0"/><path d="m74.83,162.32l4.7-12.82h2.68l-5.94,15.14h-2.93l-5.94-15.14h2.71l4.72,12.82Z" fill="#3f3f3d" stroke-width="0"/><path d="m93.61,146.55c-.33-.33-.5-.74-.5-1.22s.17-.88.5-1.22.74-.5,1.22-.5.85.17,1.17.5.48.74.48,1.22-.16.88-.48,1.22c-.32.33-.71.5-1.17.5s-.88-.17-1.22-.5Zm2.43,2.95v15.14h-2.51v-15.14h2.51Z" fill="#3f3f3d" stroke-width="0"/><path d="m109.16,152.95c.63-1.17,1.5-2.08,2.61-2.72,1.11-.64,2.39-.97,3.83-.97,1.86,0,3.39.45,4.6,1.35,1.21.9,2,2.15,2.39,3.76h-2.71c-.26-.92-.76-1.65-1.51-2.18-.75-.53-1.67-.8-2.78-.8-1.44,0-2.6.49-3.48,1.48-.88.98-1.33,2.38-1.33,4.18s.44,3.23,1.33,4.23c.88,1,2.04,1.49,3.48,1.49,1.1,0,2.03-.26,2.76-.77.74-.51,1.24-1.25,1.52-2.21h2.71c-.41,1.55-1.21,2.79-2.43,3.71-1.22.93-2.73,1.4-4.56,1.4-1.44,0-2.71-.32-3.83-.97-1.11-.64-1.98-1.56-2.61-2.73-.63-1.18-.94-2.56-.94-4.14s.31-2.93.94-4.1Z" fill="#3f3f3d" stroke-width="0"/><path d="m148.49,158.01h-12.1c.09,1.49.6,2.66,1.53,3.49.93.84,2.06,1.26,3.38,1.26,1.09,0,1.99-.25,2.72-.76.73-.51,1.24-1.18,1.53-2.03h2.71c-.41,1.46-1.22,2.64-2.43,3.55s-2.73,1.37-4.53,1.37c-1.44,0-2.72-.32-3.85-.97-1.13-.64-2.02-1.56-2.66-2.75-.64-1.19-.97-2.56-.97-4.13s.31-2.94.94-4.12c.63-1.18,1.51-2.09,2.64-2.72,1.13-.63,2.43-.95,3.91-.95s2.71.31,3.81.94c1.1.63,1.96,1.49,2.56,2.58.6,1.1.9,2.33.9,3.71,0,.48-.03.98-.08,1.52Zm-3.15-4.52c-.42-.69-1-1.22-1.73-1.58-.73-.36-1.53-.54-2.42-.54-1.27,0-2.35.41-3.25,1.22-.89.81-1.4,1.93-1.53,3.37h9.56c0-.96-.21-1.78-.63-2.47Z" fill="#3f3f3d" stroke-width="0"/><path d="m162.97,164.3c-.92-.39-1.65-.95-2.18-1.66-.53-.71-.83-1.52-.88-2.44h2.6c.07.76.43,1.37,1.06,1.85.63.48,1.47.72,2.5.72.96,0,1.71-.21,2.26-.64.55-.42.83-.96.83-1.6s-.29-1.16-.88-1.48c-.59-.32-1.5-.64-2.73-.95-1.12-.29-2.04-.59-2.75-.9s-1.32-.75-1.82-1.35c-.51-.6-.76-1.39-.76-2.36,0-.77.23-1.48.69-2.13.46-.64,1.11-1.16,1.96-1.53.85-.38,1.81-.57,2.9-.57,1.68,0,3.03.42,4.06,1.27,1.03.85,1.58,2.01,1.66,3.48h-2.51c-.05-.79-.37-1.43-.95-1.91-.58-.48-1.36-.72-2.33-.72-.9,0-1.62.19-2.15.58s-.8.89-.8,1.52c0,.5.16.91.48,1.23s.73.58,1.22.77,1.16.41,2.03.65c1.09.29,1.97.58,2.65.87.68.29,1.27.71,1.75,1.28.49.57.74,1.32.76,2.24,0,.83-.23,1.57-.69,2.24-.46.66-1.11,1.18-1.95,1.56-.84.38-1.8.57-2.89.57-1.16,0-2.2-.2-3.12-.59Z" fill="#3f3f3d" stroke-width="0"/><path d="m4.03,108.34c1.72-3.29,5.65-4.86,9.09-4.86,6.93,0,12.28,4.42,12.28,12.58s-5.36,12.58-12.33,12.58c-3.59,0-7.13-1.57-9.04-4.86l-.2,4.42H0v-32.38h4.03v12.53Zm.2,7.67c0,5.31,3.78,8.85,8.6,8.85s8.55-3.2,8.55-8.8-3.83-8.8-8.55-8.8-8.6,3.54-8.6,8.75" fill="#3f3f3d" stroke-width="0"/><path d="m53.71,128.29l-.1-4.42c-1.92,3.34-5.6,4.91-8.94,4.91-6.98,0-12.43-4.82-12.43-12.73s5.55-12.58,12.48-12.53c3.64,0,7.22,1.67,8.99,4.82l.05-4.42h3.93v24.27h-3.88l-.1.1Zm-8.84-20.93c-4.82,0-8.7,3.44-8.7,8.84s3.88,8.89,8.7,8.89c11.69,0,11.69-17.79.05-17.79l-.05.05Z" fill="#3f3f3d" stroke-width="0"/><rect x="67.82" y="95.81" width="4.03" height="32.38" fill="#3f3f3d" stroke-width="0"/><path d="m101.92,128.29l-.1-4.42c-1.92,3.34-5.6,4.91-8.94,4.91-6.98,0-12.43-4.82-12.43-12.73s5.55-12.58,12.48-12.53c3.64,0,7.22,1.67,8.99,4.82l.05-4.42h3.93v24.27h-3.88l-.1.1Zm-8.84-20.93c-4.82,0-8.7,3.44-8.7,8.84s3.88,8.89,8.7,8.89c11.69,0,11.69-17.79.05-17.79l-.05.05Z" fill="#3f3f3d" stroke-width="0"/><path d="m139.62,95.77v32.38h-3.78l-.2-4.42c-1.97,3.34-5.5,4.91-9.09,4.91-6.93,0-12.28-4.57-12.28-12.58s5.36-12.58,12.24-12.58c3.44,0,7.37,1.57,9.09,4.86v-12.53h3.98l.05-.05Zm-12.77,11.45c-4.72,0-8.55,3.1-8.55,8.8s3.83,8.8,8.55,8.8,8.6-3.54,8.6-8.84-3.83-8.75-8.65-8.75h.05Z" fill="#3f3f3d" stroke-width="0"/><polygon points="167.19 103.92 161.83 116.6 159.23 123.48 156.58 116.55 151.8 103.92 147.23 103.92 157.02 127.85 152.85 137.54 157.17 137.54 171.61 103.92 167.19 103.92" fill="#3f3f3d" stroke-width="0"/></g></svg>